<?xml version="1.0" standalone="no"?>
<!DOCTYPE svg PUBLIC "-//W3C//DTD SVG 20010904//EN"
 "http://www.w3.org/TR/2001/REC-SVG-20010904/DTD/svg10.dtd">
<svg version="1.0" xmlns="http://www.w3.org/2000/svg"
 width="512.000000pt" height="512.000000pt" viewBox="0 0 512.000000 512.000000"
 preserveAspectRatio="xMidYMid meet">
<metadata>
Created by potrace 1.14, written by Peter Selinger 2001-2017
</metadata>
<g transform="translate(0.000000,512.000000) scale(0.100000,-0.100000)"
fill="#000000" stroke="none">
<path d="M2430 4791 c-80 -26 -142 -82 -179 -160 l-25 -56 -2 -640 c-1 -352
-2 -643 -3 -646 0 -4 -20 -3 -43 1 -24 5 -72 11 -108 14 -36 4 -75 8 -85 10
-11 2 -49 7 -85 10 -36 4 -78 8 -95 11 -16 2 -57 6 -90 10 -33 3 -71 8 -85 10
-14 2 -47 7 -75 9 -27 3 -106 12 -175 21 -300 35 -332 36 -398 14 -100 -34
-176 -110 -211 -209 -18 -50 -18 -113 -17 -1329 1 -702 5 -1286 8 -1297 10
-36 46 -100 74 -133 21 -26 104 -83 124 -87 3 0 14 -5 25 -10 24 -11 176 -11
260 -1 92 12 375 46 425 51 25 3 61 7 80 10 19 3 58 7 85 10 76 8 566 66 595
71 14 2 56 7 93 10 183 15 278 68 339 193 l33 67 3 485 c2 267 6 488 10 491 4
4 43 10 86 14 43 4 86 8 95 10 9 1 45 6 81 10 36 3 76 8 90 10 77 10 230 27
260 30 31 3 75 8 165 20 17 2 57 7 90 10 33 4 71 8 84 10 14 3 52 7 85 10 112
11 190 26 233 45 61 27 128 94 160 159 l28 56 0 1125 0 1125 -26 55 c-55 116
-146 180 -279 196 -25 2 -56 7 -70 9 -14 3 -47 7 -75 10 -27 3 -65 8 -83 11
-18 2 -54 7 -80 10 -26 3 -58 7 -72 9 -54 8 -107 15 -159 21 -30 3 -61 7 -70
9 -9 1 -45 6 -81 10 -36 4 -72 9 -80 10 -8 1 -44 6 -80 10 -36 4 -73 9 -84 11
-10 2 -44 6 -75 9 -31 3 -67 8 -81 10 -14 2 -49 7 -79 10 -30 4 -61 8 -70 10
-9 1 -45 6 -81 10 -36 4 -74 9 -85 11 -45 10 -202 13 -225 5z m213 -166 c20
-4 141 -19 227 -30 133 -16 256 -32 345 -44 39 -6 99 -13 135 -16 36 -4 72 -8
80 -10 8 -3 42 -7 75 -10 33 -4 71 -8 85 -10 14 -3 50 -7 80 -10 30 -3 66 -8
80 -10 14 -3 45 -7 70 -10 25 -3 61 -7 80 -10 19 -3 55 -7 79 -10 121 -14 163
-33 199 -88 l27 -41 0 -1096 0 -1096 -27 -41 c-39 -59 -78 -75 -218 -88 -36
-3 -76 -8 -90 -10 -14 -2 -52 -6 -85 -10 -33 -3 -73 -8 -90 -10 -16 -3 -96
-12 -177 -20 -81 -9 -156 -18 -168 -20 -11 -2 -57 -7 -103 -11 -45 -3 -85 -8
-88 -10 -8 -5 -159 -18 -211 -19 l-48 0 -2 550 -3 550 -27 55 c-47 96 -140
169 -238 185 -25 4 -52 9 -60 10 -21 4 -152 18 -172 19 -16 0 -17 45 -17 643
l1 643 22 32 c33 50 60 60 144 53 40 -4 83 -8 95 -10z m-1413 -1385 c41 -5
100 -12 130 -15 30 -3 71 -8 90 -10 19 -2 60 -7 90 -10 30 -4 66 -8 80 -10 14
-2 52 -6 85 -10 58 -6 81 -8 175 -19 53 -6 210 -25 260 -31 19 -2 58 -7 85
-10 28 -3 66 -8 85 -10 19 -2 51 -6 70 -9 19 -2 69 -8 110 -12 41 -4 77 -8 80
-9 3 -1 21 -5 40 -9 51 -12 85 -40 109 -89 20 -41 20 -56 20 -1117 0 -1022 -1
-1077 -19 -1117 -23 -51 -79 -91 -140 -98 -25 -3 -65 -7 -90 -10 -25 -3 -56
-7 -70 -10 -14 -2 -52 -7 -85 -10 -33 -3 -77 -8 -97 -11 -78 -9 -125 -14 -173
-19 -27 -3 -86 -10 -130 -16 -109 -13 -141 -17 -205 -24 -30 -4 -66 -8 -80
-10 -14 -2 -47 -6 -75 -9 -27 -4 -70 -9 -95 -12 -58 -7 -90 -10 -175 -19 -38
-4 -72 -9 -75 -10 -18 -11 -175 -15 -203 -6 -44 15 -93 67 -105 111 -5 22 -9
523 -8 1285 l1 1250 23 36 c28 46 43 58 89 74 38 13 58 13 203 -5z"/>
<path d="M3329 3877 c-30 -23 -39 -56 -39 -141 l0 -86 -173 0 c-158 0 -175 -2
-194 -20 -29 -27 -37 -56 -23 -89 14 -35 47 -51 106 -51 42 0 46 -2 56 -32 24
-68 110 -229 162 -301 l54 -76 -61 -58 c-34 -33 -80 -72 -102 -88 -76 -55 -95
-77 -95 -109 0 -17 6 -39 14 -48 18 -25 62 -39 89 -29 30 12 173 119 224 170
41 40 43 41 61 24 82 -79 196 -168 232 -181 53 -20 110 31 102 90 -2 21 -22
42 -75 82 -40 30 -94 75 -121 100 l-50 45 46 68 c61 91 98 161 138 261 l33 82
44 0 c79 0 119 71 73 130 -19 25 -20 25 -200 28 l-181 3 1 62 c3 115 1 127
-25 152 -26 27 -70 32 -96 12z m200 -414 c-17 -47 -99 -196 -123 -226 l-22
-27 -41 62 c-39 60 -113 198 -113 212 0 3 70 6 155 6 l155 0 -11 -27z"/>
<path d="M1784 2466 c-23 -17 -43 -64 -209 -491 -65 -165 -142 -363 -172 -440
-30 -77 -57 -154 -60 -171 -11 -66 77 -114 127 -69 10 9 46 87 80 173 33 87
67 162 74 167 16 13 394 12 405 -1 4 -5 36 -81 70 -169 34 -88 72 -170 83
-182 45 -48 129 -13 129 53 1 16 -29 106 -66 199 -37 94 -72 186 -79 205 -7
19 -70 184 -140 365 -130 339 -149 375 -199 375 -13 0 -32 -6 -43 -14z m116
-485 c34 -90 59 -165 56 -168 -9 -9 -266 -6 -266 3 0 13 10 46 20 69 5 11 33
80 61 154 35 91 54 129 60 120 4 -8 35 -88 69 -178z"/>
</g>
</svg>
